<svg width="35" height="34" viewBox="0 0 35 34" fill="none" xmlns="http://www.w3.org/2000/svg">
<path d="M10.666 27.0007C8.83268 27.0007 7.34935 28.5007 7.34935 30.334C7.34935 32.1673 8.83268 33.6673 10.666 33.6673C12.4993 33.6673 13.9993 32.1673 13.9993 30.334C13.9993 28.5007 12.4993 27.0007 10.666 27.0007ZM0.666016 2.00065C0.666016 2.91732 1.41602 3.66732 2.33268 3.66732H3.99935L9.99935 16.3173L7.74935 20.384C6.53268 22.6173 8.13268 25.334 10.666 25.334H28.9993C29.916 25.334 30.666 24.584 30.666 23.6673C30.666 22.7507 29.916 22.0007 28.9993 22.0007H10.666L12.4993 18.6673H24.916C26.166 18.6673 27.266 17.984 27.8327 16.9507L33.7993 6.13398C34.416 5.03398 33.616 3.66732 32.3493 3.66732H7.68268L6.56602 1.28398C6.29935 0.700651 5.69935 0.333984 5.06602 0.333984H2.33268C1.41602 0.333984 0.666016 1.08398 0.666016 2.00065V2.00065ZM27.3327 27.0007C25.4993 27.0007 24.016 28.5007 24.016 30.334C24.016 32.1673 25.4993 33.6673 27.3327 33.6673C29.166 33.6673 30.666 32.1673 30.666 30.334C30.666 28.5007 29.166 27.0007 27.3327 27.0007Z" fill="white"/>
</svg>
