<svg width="213" height="32" viewBox="0 0 213 32" fill="none" xmlns="http://www.w3.org/2000/svg">
<path d="M89.8217 9.4101C87.4122 9.4101 85.2348 10.1187 83.3769 11.3375V0.226749H78.2384V20.7192C78.2384 26.9548 83.4349 31.9717 89.7927 31.9717C96.1505 31.9717 101.405 26.9832 101.405 20.6625C101.405 14.3419 96.2666 9.4101 89.8217 9.4101ZM63.1423 9.75022C57.4232 10.3171 52.7492 15.1355 52.7492 20.8609C52.7492 26.9265 58.0619 32 64.2745 32C70.4871 32 75.7998 26.9265 75.7998 20.8609C75.7998 18.2817 74.8418 15.9008 73.3031 14.0301L61.923 0.255093H55.2749L63.1423 9.75022ZM23.3699 22.1647L18.6669 10.2037H15.0671L10.335 22.1647L5.60297 10.2037H0L8.27382 31.2347H11.8737L16.8379 18.7068L21.8313 31.2347H25.4311L33.6759 10.2037H28.102L23.3699 22.1647ZM115.34 9.43844C108.924 9.43844 103.728 14.3135 103.728 20.4641C103.728 26.6147 108.285 32 115.05 32C119.114 32 122.394 30.101 124.717 26.8414L120.711 23.667C119.549 25.7077 117.314 26.8981 115.079 26.8981C112.176 26.8981 109.331 24.8857 109.098 21.938H125.907V20.4074C125.907 13.9734 121.553 9.43844 115.34 9.43844ZM180.95 9.43844C174.534 9.43844 169.367 14.3135 169.367 20.7476C169.367 26.7848 173.924 32 180.66 32C184.724 32 188.004 30.101 190.327 26.8414L186.785 23.9221C185.537 25.7927 183.272 26.8981 180.572 26.8981C177.873 26.8981 174.969 24.8857 174.737 21.938H191.488V20.1807C191.488 13.9734 187.162 9.43844 180.95 9.43844ZM198.949 16.3543C198.949 15.0505 200.778 14.0018 203.159 14.0018C205.539 14.0018 208.181 15.1639 209.894 17.0345L213 13.3215C210.039 10.7706 207.049 9.43844 203.304 9.43844C198.63 9.43844 193.811 11.5359 193.811 16.3543C193.811 22.2781 199.036 22.7033 203.304 23.0434C205.684 23.2135 207.803 23.3835 207.803 24.9141C207.803 26.558 205.394 27.3233 203.275 27.3233C200.807 27.3233 198.136 26.3029 196.191 24.0071L192.882 27.4367C195.523 30.5828 199.355 31.9717 203.1 31.9717C207.803 31.9717 212.942 29.7892 212.942 24.8007C212.942 19.1603 207.658 18.6218 203.594 18.225C201.039 17.9699 198.949 17.7431 198.949 16.3543ZM133.717 14.9938V10.2037H128.578V31.2064H133.717V22.3348C134.413 17.3747 138.449 15.3906 143.123 15.3906V10.2037H142.6C138.652 10.2037 135.778 11.6209 133.717 14.9938ZM150.032 14.9938V10.2037H144.893V31.2064H150.032V22.3348C150.729 16.7511 155.664 15.3906 159.438 15.3906V10.2037H158.886C154.996 10.2037 152.064 11.5926 150.032 14.9938ZM44.9689 31.2064H50.1074V0.255093H44.9689V31.2064ZM64.3035 26.9548C60.7618 26.9548 57.8877 24.1771 57.8877 20.7192C57.8877 17.2613 60.7618 14.4553 64.2745 14.4553C67.7872 14.4553 70.7484 17.2329 70.7484 20.7192C70.7484 24.2055 67.8453 26.9548 64.3035 26.9548ZM89.7927 26.9548C86.309 26.9548 83.3769 24.2338 83.3769 20.6909C83.3769 17.1479 86.1348 14.4553 89.8217 14.4553C93.5087 14.4553 96.2666 17.2613 96.2666 20.6909C96.2666 24.1205 93.3345 26.9548 89.7927 26.9548ZM36.0855 31.2064H41.2239V10.2037H36.0855V31.2064ZM161.644 31.2064H166.783V10.2037H161.644V31.2064ZM38.5821 0C36.4919 0 34.75 1.70062 34.75 3.85474C34.75 6.00886 36.579 7.51107 38.5821 7.51107C40.8175 7.51107 42.5013 5.69708 42.5013 3.74136C42.5013 1.78565 40.7304 0 38.5821 0ZM164.199 0C162.109 0 160.338 1.70062 160.338 3.82639C160.338 5.95217 162.051 7.48273 164.286 7.48273C166.521 7.48273 168.06 5.98051 168.06 3.91143C168.06 1.84234 166.318 0 164.199 0ZM175.347 17.7431C176.189 15.674 178.018 14.4553 180.718 14.4553C183.417 14.4553 185.043 15.7307 185.74 17.7431H175.347ZM109.708 17.7431C110.579 15.674 112.379 14.4553 115.05 14.4553C117.72 14.4553 119.462 15.7307 120.159 17.7431H109.708Z" fill="white"/>
</svg>
